<svg id="a5fdd9e9-6050-4adc-bf91-829173d8c1c1" xmlns="http://www.w3.org/2000/svg" xmlns:xlink="http://www.w3.org/1999/xlink" width="336" height="240" viewBox="0 0 336 240">
  <defs>
    <linearGradient id="f76af362-bf6a-4a68-ab90-12622c3e65ae" x1="171.52" y1="25.712" x2="171.52" y2="221.319" gradientUnits="userSpaceOnUse">
      <stop offset="0" stop-color="#69e2ff"/>
      <stop offset="1" stop-color="#fff" stop-opacity="0"/>
    </linearGradient>
    <linearGradient id="bdc7abe3-e52c-457f-a3ce-c8e521b8a46b" x1="124.13" y1="191.976" x2="172.434" y2="191.976" gradientUnits="userSpaceOnUse">
      <stop offset="0" stop-color="#69e2ff"/>
      <stop offset="1" stop-color="#fff" stop-opacity="0"/>
    </linearGradient>
  </defs>
  <rect width="336" height="240" fill="#fff"/>
  <path d="M244.34,109.633l-.3,111.686L98.7,137.4,99,25.712Z" fill="#0078d4"/>
  <path d="M244.34,109.633l-.3,111.686L98.7,137.4,99,25.712Z" fill="url(#f76af362-bf6a-4a68-ab90-12622c3e65ae)"/>
  <path d="M244.34,109.633l11.555-6.721L255.6,214.6l-11.555,6.72Z" fill="#004e99"/>
  <path d="M99,25.712,110.552,19,255.9,102.912l-11.556,6.721Z" fill="#0078d4"/>
  <path d="M106.314,39.882l130.421,75.872v93.157L106.314,133.62Z" fill="#f0f0f0" opacity="0.75"/>
  <path d="M124.13,176.638l21.235-12.3,48.778,27.955-21.709,12.293Z" fill="#0078d4"/>
  <path d="M139,168.024l6.367-3.688,48.779,27.955-6.327,3.581Z" fill="#004e99"/>
  <path d="M172.434,207.313v-2.729l-48.3-27.946v3.172Z" fill="#0078d4"/>
  <path d="M172.434,207.313v-2.729l-48.3-27.946v3.172Z" fill="url(#bdc7abe3-e52c-457f-a3ce-c8e521b8a46b)"/>
  <path d="M196.446,193.832l-24.013,13.481v-2.729l21.71-12.293Z" fill="#141e2f"/>
  <path d="M203.067,172.584l-.089,5.6-84.913-49.126v-5.6ZM176.448,115.73v6.84l-32.474-18.744v-6.84ZM198.9,128.7v6.929L181.24,125.413v-6.929Zm29.014,46.727v5.6L118.065,117.6V112Zm0-11.46v5.6L118.065,106.047l.088-5.508Zm-20.585-41.752-.089,6.929-63.175-36.6V85.7ZM228,145.49v6.929l-24.844-14.392v-6.84ZM127.559,73.445c5.856,3.375,10.559,11.548,10.47,18.211,0,6.662-4.792,9.416-10.559,6.04S117,86.237,117,79.485C117,72.823,121.791,70.069,127.559,73.445Z" fill="#b4cfe3"/>
  <path d="M118.258,107.539l6.938-4.046-.1,52.32-7.034,4.047Z" fill="#45caf2"/>
  <path d="M118.066,159.86,59,125.75l.1-46.635,59.066,34.109Z" fill="#50e6ff"/>
  <path d="M59.193,72.081l59.065,34.109v7.034L59.193,79.115V72.081Zm9.153,10.695c.868.482,1.542.1,1.542-.867a3.259,3.259,0,0,0-1.542-2.6c-.867-.481-1.541-.1-1.541.867A3.846,3.846,0,0,0,68.346,82.776Zm-4.625-2.7c.868.482,1.542.1,1.542-.867a3.259,3.259,0,0,0-1.542-2.6c-.867-.481-1.541-.1-1.541.868A3.26,3.26,0,0,0,63.721,80.078Zm9.443,5.492c.867.482,1.542.1,1.542-.867a3.259,3.259,0,0,0-1.542-2.6c-.867-.482-1.542-.1-1.542.867A3.259,3.259,0,0,0,73.164,85.57Z" fill="#acf3fd"/>
  <path d="M118.258,106.191l6.938-4.047v7.034l-7.034,4.046Z" fill="#acf3fd"/>
  <path d="M59.193,72.081l6.937-4.047L125.2,102.047l-6.938,4.047Z" fill="#d5f9fd"/>
  <path d="M63.721,76.609a3.259,3.259,0,0,1,1.542,2.6c0,.964-.674,1.349-1.542.867a3.26,3.26,0,0,1-1.541-2.6C62.18,76.513,62.854,76.128,63.721,76.609Zm4.625,2.7a3.259,3.259,0,0,1,1.542,2.6c0,.963-.674,1.349-1.542.867a3.26,3.26,0,0,1-1.541-2.6C66.9,79.211,67.576,78.826,68.346,79.307Zm4.818,2.8a3.259,3.259,0,0,1,1.542,2.6c0,.964-.675,1.349-1.542.868a3.261,3.261,0,0,1-1.541-2.6C71.623,82.005,72.3,81.62,73.164,82.1Zm5.878,21,2.216,3.854-7.227,4.144,7.131,12.429-2.217,1.253L69.5,108.5Zm18.982,10.985,9.346,16.187-9.443,5.492-2.216-3.854,7.227-4.143-7.13-12.43Z" fill="#0078d4"/>
  <path d="M90.682,106.972l1.845,1.356.462.905-7.384,21.7h-.923L83.3,129.122l-.462-.452,7.384-21.7Z" fill="#d5f9fd"/>
  <path d="M268.521,154.447v7.13l-6.263-3.565v-7.226Z" fill="#fff"/>
  <path d="M269.966,211.3,211.189,177.38l.1-46.347,59.753,34.347Z" fill="#243a5e"/>
  <path d="M270.062,159.361,277,155.314l-.1,52.032-6.938,3.95Z" fill="#1a2c45"/>
  <path d="M211.286,124l59.753,33.449v2.164l-1.073,5.338-58.68-33.917V124Zm9.154,10.695c.867.482,1.541.1,1.541-.867a3.422,3.422,0,0,0-1.445-2.6c-.867-.481-1.542-.1-1.542.868A3.422,3.422,0,0,0,220.44,134.694Zm-4.625-2.7c.867.482,1.541.1,1.541-.867a3.42,3.42,0,0,0-1.445-2.6c-.867-.482-1.542-.1-1.542.867A3.421,3.421,0,0,0,215.815,132Zm9.346,5.4c.867.482,1.542.1,1.542-.867a3.423,3.423,0,0,0-1.446-2.6c-.867-.481-1.541-.1-1.541.868A3.421,3.421,0,0,0,225.161,137.392Z" fill="#156ab3"/>
  <path d="M270.062,157.916,277,153.869V160.9l-6.938,4.047Z" fill="#185a97"/>
  <path d="M211.285,124l6.937-4.047L277,153.869l-6.937,4.047Z" fill="#2195dc"/>
  <g>
    <path d="M220.343,134.694c.867.482,1.542.1,1.542-.867a3.161,3.161,0,0,0-1.445-2.6c-.771-.482-1.446-.1-1.638.867A3.258,3.258,0,0,0,220.343,134.694Z" fill="#50e6ff"/>
    <path d="M225.065,137.489c.867.481,1.541.1,1.541-.868a3.162,3.162,0,0,0-1.445-2.6c-.771-.482-1.445-.1-1.542.867A3.161,3.161,0,0,0,225.065,137.489Z" fill="#50e6ff"/>
    <path d="M228.275,166.076a1.575,1.575,0,0,0-.195-.5l-.52-.9-.01-.013-7.438-13.144a2.219,2.219,0,0,0-.651-.7.666.666,0,0,0-.65-.067l-.52.3c-.358.2-.358.9,0,1.529l6.8,11.994,1.171-.664c.032-.019.079-.011.117-.021a.484.484,0,0,0-.116.053l-1.171.665-6.666,3.921c-.358.2-.358.9,0,1.528l.52.9a2.233,2.233,0,0,0,.65.7.665.665,0,0,0,.651.066l7.837-4.618C228.34,166.973,228.405,166.541,228.275,166.076Zm-1.706-2.21a.493.493,0,0,0-.054,0C226.534,163.872,226.549,163.864,226.569,163.866Zm.34.117a1.888,1.888,0,0,1,.594.622A2.1,2.1,0,0,0,226.909,163.983Zm1.138,1.562-.492-.87,0,.006.52.9a1.566,1.566,0,0,1,.195.5A3.793,3.793,0,0,0,228.047,165.545Z" fill="#50e6ff"/>
    <path d="M215.814,128.528c-.77-.386-1.638-.1-1.638.867a3.259,3.259,0,0,0,1.542,2.6c.867.482,1.542.1,1.542-.867A3.159,3.159,0,0,0,215.814,128.528Z" fill="#50e6ff"/>
  </g>
  <path d="M239.37,180.886a2.046,2.046,0,0,1,.91,1.628v1.395c0,.6-.423.831-.91.532L226.882,177.1a2.047,2.047,0,0,1-.911-1.628v-1.4c0-.6.423-.831.911-.532Z" fill="#abf2fc"/>
  <path d="M197.568,53.784l-.1,7.227-6.263-3.662.1-7.13Z" fill="#fff"/>
  <path d="M197.954,58.409l6.937-4.047-.1,51.936-6.938,4.047Z" fill="#185a97"/>
  <path d="M197.857,110.345,139.081,76.428l.1-46.347L197.857,64Z" fill="#0078d4"/>
  <path d="M139.177,23.047l58.681,33.917V64L139.177,30.081V23.047Zm9.154,10.695c.867.482,1.542.1,1.542-.867a3.421,3.421,0,0,0-1.446-2.6c-.867-.482-1.541-.1-1.541.867A3.42,3.42,0,0,0,148.331,33.742Zm-4.625-2.7c.867.482,1.542.1,1.542-.867a3.421,3.421,0,0,0-1.446-2.6c-.867-.482-1.541-.1-1.541.867A3.42,3.42,0,0,0,143.706,31.044Zm9.443,5.4c.867.482,1.541.1,1.541-.867a3.42,3.42,0,0,0-1.445-2.6c-.867-.482-1.542-.1-1.542.867A2.946,2.946,0,0,0,153.149,36.44Z" fill="#50e6ff"/>
  <path d="M197.954,56.964l6.937-4.047v7.034L197.954,64Z" fill="#32b0e7"/>
  <path d="M139.176,23.047,146.21,19l58.681,33.917-6.938,4.047Z" fill="#45caf2"/>
  <path d="M143.706,27.576a3.162,3.162,0,0,1,1.445,2.6c0,.964-.674,1.349-1.541.868a3.26,3.26,0,0,1-1.542-2.6C142.261,27.479,142.935,27.094,143.706,27.576Zm4.625,2.7a3.162,3.162,0,0,1,1.445,2.6c0,.964-.674,1.349-1.542.868a3.261,3.261,0,0,1-1.541-2.6C146.885,30.177,147.56,29.792,148.331,30.274Zm4.818,2.794a3.162,3.162,0,0,1,1.445,2.6c0,.964-.675,1.349-1.542.868a3.163,3.163,0,0,1-1.445-2.6C151.607,32.972,152.281,32.586,153.149,33.068Zm7,17.733v2.125c-1.092-.619-1.638-.271-1.638,1.081l-.039,8.153c0,1.855-.507,2.744-1.6,2.589a6.137,6.137,0,0,1,1.56,4.405l-.039,8.075a3.952,3.952,0,0,0,.351,1.816,2.772,2.772,0,0,0,1.092,1.121c.039.038.078.038.117.077l.078,2.164c-.117-.078-.273-.155-.39-.232a10.525,10.525,0,0,1-2.808-2.512,7,7,0,0,1-.936-3.786l.039-8.5a3.2,3.2,0,0,0-1.482-2.975V62.276c1.014.618,1.521.155,1.521-1.314V52.655c0-1.545.312-2.511.936-2.82C157.575,49.564,158.667,49.951,160.149,50.8Zm13.3,7.573a10.506,10.506,0,0,1,2.807,2.512,7,7,0,0,1,.936,3.786l-.039,8.462a3.2,3.2,0,0,0,1.482,2.975v2.125c-1.014-.579-1.521-.116-1.521,1.353l-.039,8.23c0,1.545-.312,2.511-.936,2.82-.662.271-1.715,0-3.236-.85V87.662c1.092.618,1.638.309,1.638-1.082l.039-8.152c0-1.855.507-2.744,1.6-2.589a6.206,6.206,0,0,1-1.559-4.405l.039-8.075A4.2,4.2,0,0,0,174.3,61.5a3.373,3.373,0,0,0-1.092-1.121c-.039-.038-.078-.038-.117-.077l-.078-2.163A4.271,4.271,0,0,1,173.446,58.374Z" fill="#243a5e"/>
</svg>
